<svg xmlns="http://www.w3.org/2000/svg" width="150" height="250.159" viewBox="0 0 150 250.159">
  <g id="グループ_13" data-name="グループ 13" transform="translate(-1348 -847)">
    <rect id="長方形_20" data-name="長方形 20" width="150" height="250" transform="translate(1348 847)" fill="none" />
    <g id="user-right-up" transform="translate(1103 282)">
      <g id="user-right-body-up" transform="translate(552.049 142.894)" fill="#fdd7ad">
        <path d="M -283.74365234375 670.2652587890625 L -305.0487670898438 638.9614868164062 L -305.0487670898438 532.6205444335938 L -300.2108154296875 527.6840209960938 L -299.6392211914062 527.1007690429688 L -299.6392211914062 526.2841186523438 L -299.6392211914062 462.6743774414062 C -299.6392211914062 458.2492370605469 -299.0320739746094 453.9774475097656 -297.8346862792969 449.977783203125 C -296.5727233886719 445.7624206542969 -294.7033386230469 442.0341186523438 -292.278564453125 438.8964233398438 C -289.6779174804688 435.5311279296875 -286.4752197265625 432.9078674316406 -282.7594909667969 431.0994873046875 C -278.6783142089844 429.11328125 -273.9600219726562 428.106201171875 -268.7355651855469 428.106201171875 C -263.553466796875 428.106201171875 -258.9134216308594 429.1453552246094 -254.9442138671875 431.19482421875 C -251.3705749511719 433.0400390625 -248.3085479736328 435.716796875 -245.8431396484375 439.1507263183594 C -243.579345703125 442.3038635253906 -241.8407135009766 446.0498046875 -240.6755523681641 450.2844543457031 C -239.5961151123047 454.2075500488281 -239.0487823486328 458.3761291503906 -239.0487823486328 462.6743774414062 C -239.0487823486328 479.5712890625 -238.8131408691406 503.81005859375 -238.8107452392578 504.0529174804688 L -238.7948455810547 505.6761169433594 L -237.2031097412109 505.9944763183594 L -180.0373992919922 517.4284057617188 L -159.2224731445312 571.0886840820312 L -187.8988800048828 670.2547607421875 L -283.74365234375 670.2652587890625 Z" stroke="none" />
        <path d="M -282.6856689453125 668.26513671875 L -189.4025421142578 668.2548828125 L -161.3314208984375 571.1820678710938 L -181.5053100585938 519.1743774414062 L -237.5953674316406 507.9556579589844 L -240.7788543701172 507.3189086914062 L -240.8106842041016 504.072509765625 C -240.8130340576172 503.82958984375 -241.0487518310547 479.5809936523438 -241.0487518310547 462.6744079589844 C -241.0487518310547 458.6134033203125 -241.5865020751953 454.5125122070312 -242.6038665771484 450.8150634765625 C -243.7060394287109 446.8093566894531 -245.3424987792969 443.2773742675781 -247.4677886962891 440.317138671875 C -252.3322601318359 433.5416870117188 -259.48779296875 430.1062316894531 -268.735595703125 430.1062316894531 C -273.6542053222656 430.1062316894531 -278.0780639648438 431.0454711914062 -281.8842468261719 432.8978576660156 C -285.3206481933594 434.5702514648438 -288.2853698730469 436.9999389648438 -290.6960754394531 440.119384765625 C -292.97021484375 443.0621948242188 -294.7273559570312 446.5719909667969 -295.9186706542969 450.5513916015625 C -297.0603637695312 454.3648376464844 -297.6392211914062 458.443603515625 -297.6392211914062 462.6744079589844 L -297.6392211914062 526.2841186523438 L -297.6392211914062 527.9173583984375 L -298.7824096679688 529.0838623046875 L -303.0487670898438 533.437255859375 L -303.0487670898438 638.345458984375 L -282.6856689453125 668.26513671875 M -284.8016357421875 672.265380859375 L -307.0487670898438 639.5775146484375 L -307.0487670898438 531.803955078125 L -301.6392211914062 526.2841186523438 C -301.6392211914062 526.2841186523438 -301.6392211914062 480.5859069824219 -301.6392211914062 462.6744079589844 C -301.6392211914062 444.7628479003906 -291.8654174804688 426.1062316894531 -268.735595703125 426.1062316894531 C -245.6057586669922 426.1062316894531 -237.0487518310547 445.591796875 -237.0487518310547 462.6744079589844 C -237.0487518310547 479.7569580078125 -236.8108673095703 504.0333251953125 -236.8108673095703 504.0333251953125 L -178.5695037841797 515.682373046875 L -157.1135101318359 570.9952392578125 L -186.3952484130859 672.2545776367188 L -284.8016357421875 672.265380859375 Z" stroke="none" fill="#363636" />
      </g>
      <g id="user-nail-up" transform="translate(261.787 573.934)" fill="#fdc6ad">
        <path d="M 34.42490768432617 27.10426330566406 C 29.92061805725098 27.10426330566406 24.00323867797852 27.09048461914062 18.28068733215332 27.0771541595459 C 12.98292827606201 27.0648136138916 7.978978157043457 27.05316352844238 4.449778079986572 27.05316352844238 C 2.946666479110718 27.05316352844238 1.804379940032959 27.0553092956543 0.9999980926513672 27.05967903137207 L 0.9999980926513672 7.699893474578857 C 0.9999980926513672 5.467523574829102 3.166548013687134 2.946573734283447 6.795527935028076 0.9563537240028381 C 10.79948806762695 -1.239506244659424 16.0720272064209 -2.498896360397339 21.2612190246582 -2.498896360397339 C 26.4753475189209 -2.498896360397339 31.45540809631348 -1.275976300239563 35.28400802612305 0.9445937275886536 C 38.66177749633789 2.903673648834229 40.67835998535156 5.429023742675781 40.67835998535156 7.699893474578857 L 40.67835998535156 27.08564567565918 C 39.48472213745117 27.09814071655273 37.41771697998047 27.10426330566406 34.42490768432617 27.10426330566406 Z" stroke="none" />
        <path d="M 21.2612190246582 -1.498907089233398 C 16.23484802246094 -1.498907089233398 11.1375789642334 -0.2844161987304688 7.276386260986328 1.833152770996094 C 4.02178955078125 3.618043899536133 1.999996185302734 5.866054534912109 1.999996185302734 7.699893951416016 L 1.999996185302734 26.05582809448242 C 2.673614501953125 26.05404472351074 3.488361358642578 26.05316352844238 4.450099945068359 26.05316352844238 C 7.980617523193359 26.05316352844238 12.98538780212402 26.06482315063477 18.28400802612305 26.07716369628906 C 24.00572776794434 26.09048461914062 29.9222583770752 26.10426330566406 34.42519760131836 26.10426330566406 C 36.6883659362793 26.10426330566406 38.44327545166016 26.10059547424316 39.67835998535156 26.09331321716309 L 39.67835998535156 7.699893951416016 C 39.67835998535156 5.81822395324707 37.80229949951172 3.561203002929688 34.78229904174805 1.809614181518555 C 33.04281616210938 0.8007240295410156 31.03353881835938 0.0002536773681640625 28.81026840209961 -0.5695667266845703 C 26.40424728393555 -1.186235427856445 23.86437797546387 -1.498907089233398 21.2612190246582 -1.498907089233398 M 21.2612190246582 -3.498907089233398 C 32.77037811279297 -3.498907089233398 41.67835998535156 2.310712814331055 41.67835998535156 7.699893951416016 L 41.67835998535156 28.06866455078125 C 40.83103942871094 28.09501457214355 38.10750961303711 28.10426139831543 34.42519378662109 28.10426139831543 C 25.76722145080566 28.10426139831543 11.80602073669434 28.05316352844238 4.450092315673828 28.05316352844238 C 2.309429168701172 28.05316352844238 0.7282905578613281 28.0574893951416 -3.814697265625e-06 28.06866455078125 C -3.814697265625e-06 28.06866455078125 -3.814697265625e-06 10.96573352813721 -3.814697265625e-06 7.699893951416016 C -3.814697265625e-06 2.310712814331055 9.752058029174805 -3.498907089233398 21.2612190246582 -3.498907089233398 Z" stroke="none" fill="#363636" />
      </g>
    </g>
  </g>
</svg>
