<svg xmlns="http://www.w3.org/2000/svg" width="150" height="250" viewBox="0 0 150 250">
  <g id="グループ_11" data-name="グループ 11" transform="translate(-346 -107)">
    <rect id="長方形_25" data-name="長方形 25" width="150" height="250" transform="translate(346 107)" fill="none" />
    <g id="opp-left-down-lost" transform="translate(324 -187)">
      <g id="opp-right-body-down" transform="translate(408.345 233.559)" fill="#ddd">
        <path d="M -266.6148986816406 308.326904296875 L -363.0953674316406 308.326904296875 L -376.0763244628906 289.8518371582031 L -367.9659118652344 272.5558776855469 L -367.4859008789062 271.5321655273438 L -368.1155090332031 270.593017578125 L -382.3676147460938 249.3350830078125 L -372.9722290039062 231.7407989501953 L -372.4694519042969 230.7992553710938 L -372.9717712402344 229.8574371337891 L -384.0214233398438 209.1414337158203 L -373.0658264160156 192.4960327148438 L -372.407958984375 191.4965057373047 L -372.9776916503906 190.4442291259766 L -383.8058776855469 170.4445190429688 L -345.4881591796875 138.5856628417969 L -258.6947326660156 155.4987335205078 L -244.8746490478516 166.2161102294922 L -252.5297546386719 186.3751525878906 L -252.8907775878906 187.3258666992188 L -252.3352355957031 188.1777038574219 L -238.5801544189453 209.2687835693359 L -248.3662567138672 234.5836944580078 L -248.5887451171875 235.1592559814453 L -248.4483032226562 235.7601318359375 L -244.6117553710938 252.1713409423828 L -258.0875854492188 274.5910339355469 L -258.5525817871094 275.3646240234375 L -258.2801208496094 276.2251281738281 L -252.9131317138672 293.1742553710938 L -266.6148986816406 308.326904296875 Z" stroke="none" />
        <path d="M -344.9392395019531 140.730224609375 L -381.2664794921875 170.9341430664062 L -371.2189331054688 189.4920043945312 L -370.0794982910156 191.5965423583984 L -371.3952331542969 193.5955810546875 L -381.6976318359375 209.2485198974609 L -371.2071228027344 228.9162139892578 L -370.2024230957031 230.7998199462891 L -371.2080078125 232.6829071044922 L -380.0380249023438 249.2183532714844 L -366.4543151855469 269.4793090820312 L -365.1950378417969 271.3576049804688 L -366.1551208496094 273.405029296875 L -373.773193359375 289.6509399414062 L -362.0563049316406 306.326904296875 L -267.5028381347656 306.326904296875 L -255.166259765625 292.6839599609375 L -260.1867980957031 276.8288879394531 L -260.7317810058594 275.10791015625 L -259.8017883300781 273.5606689453125 L -246.7439575195312 251.83642578125 L -250.3957824707031 236.2153930664062 L -250.6767272949219 235.0136566162109 L -250.2317199707031 233.8625640869141 L -240.8150024414062 209.5032043457031 L -254.0104675292969 189.2702026367188 L -255.1215209960938 187.5665893554688 L -254.3995056152344 185.6651306152344 L -247.269775390625 166.8896179199219 L -259.5443420410156 157.3708190917969 L -344.9392395019531 140.730224609375 M -346.037109375 136.4410705566406 L -257.8451538085938 153.6266784667969 L -242.4795532226562 165.5425720214844 L -250.6600341796875 187.0851440429688 L -236.3452758789062 209.0343322753906 L -246.5007934570312 235.3048400878906 L -242.4795532226562 252.5061645507812 L -256.3734130859375 275.6213684082031 L -250.6600341796875 293.6644897460938 L -265.7269897460938 310.326904296875 L -364.1344909667969 310.326904296875 L -378.3795166015625 290.052734375 L -369.7767333984375 271.7067565917969 L -384.697265625 249.4518127441406 L -374.7364501953125 230.7987060546875 L -386.3452758789062 209.0343322753906 L -374.7364501953125 191.3964691162109 L -386.3452758789062 169.9548950195312 L -346.037109375 136.4410705566406 Z" stroke="none" fill="#ccc" />
      </g>
      <g id="winkles" transform="translate(47.138 386.817)">
        <line id="線_1" data-name="線 1" x1="65.86" transform="translate(0 37.926)" fill="none" stroke="#ccc" stroke-width="4" />
        <line id="線_2" data-name="線 2" x1="65.86" transform="translate(0 76.926)" fill="none" stroke="#ccc" stroke-width="4" />
        <line id="線_3" data-name="線 3" x1="65.86" transform="translate(0 117.926)" fill="none" stroke="#ccc" stroke-width="4" />
        <line id="線_4" data-name="線 4" x1="71.71" transform="translate(20.362)" fill="none" stroke="#ccc" stroke-width="4" />
      </g>
      <g id="thunb-nail" transform="translate(32.364 357)">
        <g id="パス_2" data-name="パス 2" fill="#ddd">
          <path d="M 32.39897537231445 46.59846115112305 C 28.23059463500977 46.59846115112305 24.19105529785156 45.98749160766602 20.39258575439453 44.78253173828125 C 16.7492847442627 43.62679290771484 13.48467540740967 41.97780227661133 10.68944549560547 39.88138198852539 C 7.936835289001465 37.81692123413086 5.783125400543213 35.42604064941406 4.288145542144775 32.77514266967773 C 2.769845485687256 30.0829029083252 2.000005483627319 27.23119163513184 2.000005483627319 24.29923248291016 C 2.000005483627319 21.36727333068848 2.769845485687256 18.51556205749512 4.288145542144775 15.82332229614258 C 5.783125400543213 13.17242240905762 7.936835289001465 10.78154277801514 10.68944549560547 8.717082023620605 C 13.48467540740967 6.620662689208984 16.7492847442627 4.971672534942627 20.39258575439453 3.815932512283325 C 24.19105529785156 2.61097240447998 28.23059463500977 2.000002384185791 32.39897537231445 2.000002384185791 C 36.56735610961914 2.000002384185791 40.60689544677734 2.61097240447998 44.40537643432617 3.815932512283325 C 48.04867553710938 4.971672534942627 51.31328582763672 6.620662689208984 54.10851669311523 8.717082023620605 C 56.86112594604492 10.78154277801514 59.01483535766602 13.17242240905762 60.50981521606445 15.82332229614258 C 62.02811431884766 18.51557159423828 62.79795455932617 21.36727333068848 62.79795455932617 24.29923248291016 C 62.79795455932617 27.23119163513184 62.02811431884766 30.08289337158203 60.50981521606445 32.77514266967773 C 59.01483535766602 35.42604064941406 56.86112594604492 37.81692123413086 54.10851669311523 39.88138198852539 C 51.31328582763672 41.97780227661133 48.04867553710938 43.62679290771484 44.40537643432617 44.78253173828125 C 40.60689544677734 45.98749160766602 36.56735610961914 46.59846115112305 32.39897537231445 46.59846115112305 Z" stroke="none" />
          <path d="M 32.39897537231445 3.999996185302734 C 28.4360466003418 3.999996185302734 24.5999755859375 4.5794677734375 20.99732971191406 5.722316741943359 C 17.56877517700195 6.809925079345703 14.50443267822266 8.355831146240234 11.88944625854492 10.31707763671875 C 6.801856994628906 14.13277435302734 4 19.09839630126953 4 24.29923248291016 C 4 29.50006866455078 6.801856994628906 34.46569061279297 11.88944625854492 38.28138732910156 C 14.50443267822266 40.24263381958008 17.56877517700195 41.78853988647461 20.99732971191406 42.87615203857422 C 24.5999755859375 44.01899719238281 28.4360466003418 44.59846878051758 32.39897537231445 44.59846878051758 C 36.36190414428711 44.59846878051758 40.19797515869141 44.01899719238281 43.80062103271484 42.87615203857422 C 47.22917556762695 41.78853988647461 50.29351806640625 40.24263381958008 52.90850448608398 38.28138732910156 C 57.99609375 34.46569061279297 60.79795074462891 29.50006866455078 60.79795074462891 24.29923248291016 C 60.79795074462891 19.09839630126953 57.99609375 14.13277435302734 52.90850448608398 10.31707763671875 C 50.29351806640625 8.355831146240234 47.22917556762695 6.809925079345703 43.80062103271484 5.722316741943359 C 40.19797515869141 4.5794677734375 36.36190414428711 3.999996185302734 32.39897537231445 3.999996185302734 M 32.39897537231445 -3.814697265625e-06 C 50.29243469238281 -3.814697265625e-06 64.79795074462891 10.8791389465332 64.79795074462891 24.29923248291016 C 64.79795074462891 37.71932601928711 50.29243469238281 48.59846878051758 32.39897537231445 48.59846878051758 C 14.50551605224609 48.59846878051758 0 37.71932601928711 0 24.29923248291016 C 0 10.8791389465332 14.50551605224609 -3.814697265625e-06 32.39897537231445 -3.814697265625e-06 Z" stroke="none" fill="#ccc" />
        </g>
        <g id="パス_3" data-name="パス 3" transform="translate(11.367 1.35)" fill="#ddd">
          <path d="M 20.86765098571777 19.17289924621582 C 15.44138145446777 19.17289924621582 10.35560131072998 18.15911865234375 6.547181129455566 16.31829833984375 C 4.752360820770264 15.45076847076416 3.354501008987427 14.4534387588501 2.392441034317017 13.35401821136475 C 1.468480944633484 12.29814910888672 1.000000953674316 11.19877910614014 1.000000953674316 10.08644866943359 C 1.000000953674316 8.974118232727051 1.468480944633484 7.874748706817627 2.392441034317017 6.818878650665283 C 3.354501008987427 5.71945858001709 4.752360820770264 4.722128868103027 6.547181129455566 3.854598760604858 C 10.35560131072998 2.013778686523438 15.44138145446777 0.9999986886978149 20.86765098571777 0.9999986886978149 C 26.29393005371094 0.9999986886978149 31.37970161437988 2.013778686523438 35.18812942504883 3.854598760604858 C 36.98294067382812 4.722128868103027 38.38080215454102 5.71945858001709 39.34286117553711 6.818878650665283 C 40.26682281494141 7.874748706817627 40.73530197143555 8.974118232727051 40.73530197143555 10.08644866943359 C 40.73530197143555 11.19877910614014 40.26682281494141 12.29814910888672 39.34286117553711 13.35401821136475 C 38.38080215454102 14.4534387588501 36.98294067382812 15.45076847076416 35.18812942504883 16.31829833984375 C 31.37970161437988 18.15911865234375 26.29393005371094 19.17289924621582 20.86765098571777 19.17289924621582 Z" stroke="none" />
          <path d="M 20.86765098571777 1.999998092651367 C 15.58905029296875 1.999998092651367 10.65782165527344 2.978387832641602 6.98236083984375 4.754939079284668 C 3.816001892089844 6.285408973693848 2 8.228668212890625 2 10.08644866943359 C 2 11.94422912597656 3.816001892089844 13.88748931884766 6.98236083984375 15.41795921325684 C 10.65782165527344 17.19450759887695 15.58905029296875 18.17289924621582 20.86765098571777 18.17289924621582 C 26.1462516784668 18.17289924621582 31.07747077941895 17.19450759887695 34.7529411315918 15.41795921325684 C 37.9193000793457 13.88748931884766 39.73530197143555 11.94422912597656 39.73530197143555 10.08644866943359 C 39.73530197143555 8.228668212890625 37.9193000793457 6.285408973693848 34.7529411315918 4.754939079284668 C 31.07747077941895 2.978387832641602 26.1462516784668 1.999998092651367 20.86765098571777 1.999998092651367 M 20.86765098571777 -1.9073486328125e-06 C 32.39253234863281 -1.9073486328125e-06 41.73530197143555 4.51585865020752 41.73530197143555 10.08644866943359 C 41.73530197143555 15.65703868865967 32.39253234863281 20.17289924621582 20.86765098571777 20.17289924621582 C 9.342761993408203 20.17289924621582 0 15.65703868865967 0 10.08644866943359 C 0 4.51585865020752 9.342761993408203 -1.9073486328125e-06 20.86765098571777 -1.9073486328125e-06 Z" stroke="none" fill="#ccc" />
        </g>
      </g>
    </g>
  </g>
</svg>
