<!-- <svg id="thumbs-up-clipart-17779" xmlns="http://www.w3.org/2000/svg" width="154.695" height="253.763" viewBox="0 0 154.695 253.763">
  <g id="グループ_21" data-name="グループ 21" transform="translate(0 0)">
    <path id="node4" d="M148.809-273c10,5,11.5,17.9,4.9,44-4,15.9-5.6,28.1-4.6,34.9l.6,4.4,6.7,2.3a86.176,86.176,0,0,1,11.6,4.9c8.3,4.5,10.5,12.8,5.5,21.2-2.9,5.1-3.1,4.3,3.1,13.2,3.8,5.4,3.1,8.9-3,15.9l-4.7,5.3,1.9,4.1c3.2,7,7.2,11.6,15.5,17.8,5.7,4.2,10,6.5,14.9,8,8.2,2.4,11.7,5.1,15.2,11.7a36.182,36.182,0,0,1,4,23.8c-2.1,11.2-4.9,17.1-11.2,23.9-6.6,7-16.4,12.3-28.2,15.2-12.2,3-16.6.6-25.2-13.9-7.8-13.3-8.5-13.8-20.8-14.9-11.7-1.1-14.9-2.5-19.3-8.4-2.7-3.6-3.7-4.1-9.5-5.3a52.553,52.553,0,0,1-10.7-3.1c-4.8-2.1-14.8-11.1-16.9-15.2a15.7,15.7,0,0,1-.4-11.3,3.666,3.666,0,0,0-.9-3.9c-1.1-1.3-1.7-4.3-1.9-10.5-.3-6.7-.8-9.1-2.2-10.6-3.3-3.6-6.3-11.8-6.8-18.7-.4-5.8-.1-7.2,2-11,2.1-3.5,2.6-5.7,2.6-11.4,0-5.9.5-8.1,3-13,4.3-8.5,12.6-19.8,16.7-23,3.4-2.5,4-2.7,11.5-2.1l8,.5v-3.3a122.243,122.243,0,0,0-2.1-13.6c-4.6-22.4-.9-36,13.2-49.4C132.409-274.9,140.109-277.3,148.809-273Zm-15.2,4.1c-7,3.3-15.6,12.4-19.4,20.4-4.5,9.4-5,18.1-2.1,33.1,1.1,6,2.2,12.5,2.3,14.4l.3,3.5,12,2.6c6.6,1.4,13.5,2.9,15.4,3.3l3.4.8-.7-4.5c-.9-6.2.8-18.3,5.1-35.2,5.9-23.4,5-34.9-2.9-38.8C142.609-271.5,138.709-271.4,133.609-268.9ZM92.909-193c-3.1,2.5-11.7,14.1-14.7,20-2,3.9-4.3,14-3.2,14a26.09,26.09,0,0,0,4.7-3.9c3.1-2.9,5.3-4,9-4.5,6.7-1.1,22.3.2,33.5,2.7a79.1,79.1,0,0,0,17.2,2c6.9-.1,7.8.1,7.8,1.7,0,1.4-1.3,2.1-5.4,3-4.8,1-6.5.8-15.7-1.6-8.1-2.1-13.6-2.8-24.5-3.2l-14.1-.4-7.2,6.8c-8.3,7.7-10.1,10.7-10.1,16.2,0,4.6,2.2,12.3,4.5,15.8l1.7,2.6,4.6-5.2c3.5-3.8,5.8-5.4,8.7-6,5.9-1.4,21.1-1.2,37,.5,7.7.8,14.3,1.5,14.7,1.5.5,0,.8,1,.8,2.1,0,2-.4,2.1-4.8,1.5-2.6-.3-14.2-.9-25.9-1.3l-21.1-.6-5.4,5.1-5.3,5.1-.3,7.8c-.4,9.8.7,11.9,5.6,10.2,2.3-.8,5.3-.8,11.1,0a144.572,144.572,0,0,0,21.6.4c13.1-.6,13.7-.5,13.3,1.3-.3,1.6-1.8,2.1-11.3,3.1-6.1.6-16.7,1.2-23.7,1.2-11.5.1-12.8.3-13.8,2-1.8,3.4-1.1,6.7,2.3,11,8.7,11,19.2,14.7,41.2,14.5,15-.2,19.5-1.2,26.7-6,3.7-2.4,3.8-2.5,3.8-8.8v-6.4l6-6.6c6.9-7.6,7.4-10,4-18.6-3.5-8.8-2.7-13.2,3.7-20.3,6-6.7,6.1-8,1.9-13.4-5.1-6.5-5.4-8.5-2.2-15,6-12.3,2-16.3-23.9-23.6-15.9-4.5-36.3-8.3-45.6-8.6C96.809-195,94.709-194.4,92.909-193Zm78.9,84.4c.9,6.5,0,8.7-6.5,15.9-5.6,6.2-5.9,6.8-5.4,10.6.8,5.8-.2,8.3-4.5,11.3-6,4.2-14.8,6.6-26.6,7.4l-10.8.7,3,3c2.7,2.6,4,3,14.1,4.3,6.1.7,12,1.8,13,2.4,2.6,1.3,7,7.1,11.9,15.5,6.6,11.4,9.9,13.4,19.4,11.4,6.1-1.3,16.7-5.9,21.8-9.4,9.2-6.4,15.1-18.8,15.3-32,.1-13.7-5.1-22.1-15.9-25.5a76.174,76.174,0,0,1-8.7-3.1c-3.9-2.1-17.8-13.2-18.8-15.1C171.609-114.1,171.209-113.3,171.809-108.6Z" transform="translate(-66.257 275.029)" fill="#363636" />
  </g>
  <g id="グループ_22" data-name="グループ 22" transform="translate(3.952 4.194)">
    <path id="node10" d="M170.068-269.3c7.9,3.9,8.8,15.4,2.9,38.8-4.3,16.9-6,29-5.1,35.2l.7,4.5-3.4-.8c-1.9-.4-8.8-1.9-15.4-3.3l-12-2.6-.3-3.5c-.1-1.9-1.2-8.4-2.3-14.4-4.1-21-.9-34,11.3-45.8C155.968-270.4,163.068-272.8,170.068-269.3Z" transform="translate(-93.268 270.835)" fill="#fdd7ad" stroke="#707070" stroke-width="0.1" />
    <path id="node11" d="M152.488-193.9a289.817,289.817,0,0,1,35.5,7.6c25.9,7.3,29.9,11.3,23.9,23.6-3.2,6.5-2.9,8.5,2.2,15,4.2,5.4,4.1,6.7-1.9,13.4-6.4,7.1-7.2,11.5-3.7,20.3,3.4,8.6,2.9,11-4,18.6l-6,6.6v6.4c0,6.3-.1,6.4-3.8,8.8-7.2,4.8-11.7,5.8-26.7,6-22,.2-32.5-3.5-41.2-14.5-3.4-4.3-4.1-7.6-2.3-11,1-1.7,2.3-1.9,13.8-2,7,0,17.6-.6,23.7-1.2,9.5-1,11-1.5,11.3-3.1.4-1.8-.2-1.9-13.3-1.3a144.572,144.572,0,0,1-21.6-.4c-5.8-.8-8.8-.8-11.1,0-4.9,1.7-6-.4-5.6-10.2l.3-7.8,5.3-5.1,5.4-5.1,21.1.6c11.7.4,23.3,1,25.9,1.3,4.4.6,4.8.5,4.8-1.5,0-1.1-.3-2.1-.8-2.1-.4,0-7-.7-14.7-1.5-15.9-1.7-31.1-1.9-37-.5-2.9.6-5.2,2.2-8.7,6l-4.6,5.2-1.7-2.6c-2.3-3.5-4.5-11.2-4.5-15.8,0-5.5,1.8-8.5,10.1-16.2l7.2-6.8,14.1.4c10.9.4,16.4,1.1,24.5,3.2,9.2,2.4,10.9,2.6,15.7,1.6,4.1-.9,5.4-1.6,5.4-3,0-1.6-.9-1.8-7.8-1.7a79.1,79.1,0,0,1-17.2-2c-11.2-2.5-26.8-3.8-33.5-2.7-3.7.5-5.9,1.6-9,4.5a26.09,26.09,0,0,1-4.7,3.9c-1.1,0,1.2-10.1,3.2-14,3-5.9,11.6-17.5,14.7-20C137.988-195.2,142.688-195.4,152.488-193.9Z" transform="translate(-112.488 270.834)" fill="#fdd7ad" stroke="#707070" stroke-width="0.1" />
    <path id="node12" d="M125.8-111.2c1,1.9,14.9,13,18.8,15.1a76.174,76.174,0,0,0,8.7,3.1c10.8,3.4,16,11.8,15.9,25.5-.2,13.2-6.1,25.6-15.3,32-5.1,3.5-15.7,8.1-21.8,9.4-9.5,2-12.8,0-19.4-11.4-4.9-8.4-9.3-14.2-11.9-15.5-1-.6-6.9-1.7-13-2.4-10.1-1.3-11.4-1.7-14.1-4.3l-3-3,10.8-.7c11.8-.8,20.6-3.2,26.6-7.4,4.3-3,5.3-5.5,4.5-11.3-.5-3.8-.2-4.4,5.4-10.6,6.5-7.2,7.4-9.4,6.5-15.9C123.9-113.3,124.3-114.1,125.8-111.2Z" transform="translate(-22.899 270.834)" fill="#fdd7ad" stroke="#707070" stroke-width="0.1" />
  </g>
</svg> -->
<svg xmlns="http://www.w3.org/2000/svg" width="150" height="250" viewBox="0 0 150 250">
  <g id="グループ_5" data-name="グループ 5" transform="translate(-1348 -107)">
    <rect id="長方形_14" data-name="長方形 14" width="150" height="250" transform="translate(1348 107)" fill="none" />
    <g id="opp-left-up" transform="translate(1326 -457.999)">
      <g id="opp-left-body-up" transform="translate(408.345 504.559)" fill="#fdd7ad">
        <path d="M -266.6148986816406 308.3269348144531 L -363.0953674316406 308.3269348144531 L -376.0763549804688 289.8518676757812 L -367.9659423828125 272.5558776855469 L -367.4859008789062 271.5321655273438 L -368.1155395507812 270.593017578125 L -382.3676452636719 249.3350830078125 L -372.9722290039062 231.7408294677734 L -372.4694519042969 230.7992553710938 L -372.9717712402344 229.8574829101562 L -384.0214233398438 209.1414337158203 L -373.0657958984375 192.4960174560547 L -372.4079895019531 191.4964904785156 L -372.9776611328125 190.4442291259766 L -383.8507690429688 170.3615875244141 L -367.4994201660156 155.0882263183594 L -366.8646240234375 154.4952850341797 L -366.8646240234375 153.6266479492188 L -366.8646240234375 101.9933242797852 C -366.8646240234375 89.72655487060547 -365.2908630371094 81.38868713378906 -361.9120178222656 75.75355529785156 C -360.06982421875 72.68122100830078 -357.7066345214844 70.44149017333984 -354.6874389648438 68.90628814697266 C -351.4692687988281 67.26995849609375 -347.4123229980469 66.44025421142578 -342.6292419433594 66.44025421142578 C -342.5431213378906 66.44025421142578 -342.4559020996094 66.44052124023438 -342.3692016601562 66.44105529785156 C -337.4569091796875 66.47088623046875 -333.1173706054688 67.32645416259766 -329.4711303710938 68.98398590087891 C -326.0089721679688 70.55789184570312 -323.0838317871094 72.89865875244141 -320.7770080566406 75.94129180908203 C -316.2403564453125 81.92495727539062 -313.9400329589844 90.69012451171875 -313.9400329589844 101.9933242797852 L -313.9400329589844 140.4324493408203 L -313.9400329589844 142.0032501220703 L -312.4139709472656 142.37548828125 L -258.733642578125 155.4685821533203 L -244.8746490478516 166.2161254882812 L -252.5297393798828 186.3751525878906 L -252.8907775878906 187.3258819580078 L -252.3352355957031 188.1776885986328 L -238.5801391601562 209.2687530517578 L -248.3662719726562 234.5837249755859 L -248.5887756347656 235.1592559814453 L -248.4483032226562 235.7601165771484 L -244.6117553710938 252.1713104248047 L -258.0875854492188 274.591064453125 L -258.5525817871094 275.3646545410156 L -258.2801208496094 276.2251586914062 L -252.9131317138672 293.1742553710938 L -266.6148986816406 308.3269348144531 Z" stroke="none" />
        <path d="M -342.6300964355469 68.44024658203125 C -347.0942687988281 68.44024658203125 -350.845703125 69.19686889648438 -353.7801208496094 70.68917846679688 C -356.4541015625 72.04898071289062 -358.552734375 74.04217529296875 -360.1959838867188 76.7825927734375 C -361.8374633789062 79.52008056640625 -363.0105895996094 82.9525146484375 -363.7824096679688 87.27603149414062 C -364.5106201171875 91.3551025390625 -364.8646240234375 96.16915893554688 -364.8646240234375 101.9933166503906 L -364.8646240234375 153.6266632080078 L -364.8646240234375 155.3639526367188 L -366.1342163085938 156.5498046875 L -381.3562316894531 170.768310546875 L -371.2189331054688 189.4919891357422 L -370.0794677734375 191.5965270996094 L -371.3952026367188 193.5955657958984 L -381.6976013183594 209.24853515625 L -371.2071533203125 228.9161987304688 L -370.2024536132812 230.7997741699219 L -371.2080078125 232.6828765869141 L -380.0380249023438 249.2183532714844 L -366.454345703125 269.4792785644531 L -365.195068359375 271.3575439453125 L -366.1551208496094 273.4049987792969 L -373.773193359375 289.6509704589844 L -362.0563049316406 306.326904296875 L -267.5028381347656 306.326904296875 L -255.166259765625 292.6839904785156 L -260.1867980957031 276.8288879394531 L -260.7317504882812 275.10791015625 L -259.8017883300781 273.5606994628906 L -246.7439880371094 251.8364562988281 L -250.3958129882812 236.2153778076172 L -250.6767272949219 235.013671875 L -250.2317504882812 233.8625640869141 L -240.8150024414062 209.503173828125 L -254.0104675292969 189.2702026367188 L -255.1215209960938 187.5665588378906 L -254.3994750976562 185.6651306152344 L -247.269775390625 166.8896331787109 L -259.6220397949219 157.3105316162109 L -312.8878784179688 144.3185272216797 L -315.9400329589844 143.5740966796875 L -315.9400329589844 140.4324493408203 L -315.9400329589844 101.9933166503906 C -315.9400329589844 96.58053588867188 -316.4906311035156 91.72210693359375 -317.5765686035156 87.55294799804688 C -318.6507873535156 83.42877197265625 -320.2637634277344 79.92855834960938 -322.3706970214844 77.14959716796875 C -324.4747619628906 74.37442016601562 -327.1422119140625 72.23965454101562 -330.2988586425781 70.80471801757812 C -333.6871643066406 69.26437377929688 -337.7523498535156 68.46908569335938 -342.3807067871094 68.44097900390625 C -342.4635925292969 68.44049072265625 -342.5469055175781 68.44024658203125 -342.6293334960938 68.44024658203125 L -342.6300964355469 68.44024658203125 M -342.6292724609375 64.44021606445312 C -342.5390930175781 64.44024658203125 -342.4478454589844 64.44052124023438 -342.3570861816406 64.44107055664062 C -321.1163024902344 64.570068359375 -311.9400329589844 79.23965454101562 -311.9400329589844 101.9933166503906 C -311.9400329589844 124.7469482421875 -311.9400329589844 140.4324493408203 -311.9400329589844 140.4324493408203 L -257.8451538085938 153.6266632080078 L -242.4795532226562 165.5426025390625 L -250.6600341796875 187.0851287841797 L -236.3452758789062 209.0343475341797 L -246.5008239746094 235.3048400878906 L -242.4795532226562 252.5061645507812 L -256.3734130859375 275.6213989257812 L -250.6600341796875 293.6644897460938 L -265.7269897460938 310.326904296875 L -364.1344604492188 310.326904296875 L -378.3795166015625 290.052734375 L -369.7767333984375 271.7067260742188 L -384.697265625 249.4518127441406 L -374.7364501953125 230.7987060546875 L -386.3452758789062 209.0343475341797 L -374.7364501953125 191.3964538574219 L -386.3452758789062 169.9548797607422 L -368.8646240234375 153.6266632080078 C -368.8646240234375 153.6266632080078 -368.8646240234375 124.7350616455078 -368.8646240234375 101.9933166503906 C -368.8646240234375 79.34872436523438 -363.6435852050781 64.43984985351562 -342.6292724609375 64.44021606445312 Z" stroke="none" fill="#363636" />
      </g>
      <g id="opp-lines">
        <line id="line-4" x1="65.86" transform="translate(47.138 775.743)" fill="none" stroke="#363636" stroke-width="4" />
        <line id="line-3" x1="65.86" transform="translate(47.138 734.743)" fill="none" stroke="#363636" stroke-width="4" />
        <line id="line-2" x1="65.86" transform="translate(47.5 695.743)" fill="none" stroke="#363636" stroke-width="4" />
        <path id="line-1" d="M93,0H4.3" transform="translate(47.5 657.817)" fill="none" stroke="#363636" stroke-width="4" />
      </g>
    </g>
  </g>
</svg>
