<svg xmlns="http://www.w3.org/2000/svg" width="150" height="250" viewBox="0 0 150 250">
  <g id="グループ_10" data-name="グループ 10" transform="translate(-513 -107)">
    <rect id="長方形_24" data-name="長方形 24" width="150" height="250" transform="translate(513 107)" fill="none" />
    <g id="opp-right-down" transform="translate(513 170)">
      <g id="opp-right-body-down" transform="translate(386.345 -123.441)" fill="#fdd7ad">
        <path d="M -259.59521484375 308.326904296875 L -356.0756530761719 308.326904296875 L -369.7774658203125 293.1742553710938 L -364.4104614257812 276.2251281738281 L -364.1380004882812 275.3646240234375 L -364.6029968261719 274.5910339355469 L -378.078857421875 252.1713409423828 L -374.2422485351562 235.7601318359375 L -374.101806640625 235.1592559814453 L -374.3243103027344 234.5836944580078 L -384.1104125976562 209.2687683105469 L -370.3553771972656 188.1776733398438 L -369.7998352050781 187.3258666992188 L -370.1608581542969 186.3751525878906 L -377.8159484863281 166.2161102294922 L -363.9958190917969 155.4987335205078 L -277.202392578125 138.5856628417969 L -238.8846893310547 170.4445190429688 L -249.712890625 190.4442291259766 L -250.2826080322266 191.4965057373047 L -249.624755859375 192.4960327148438 L -238.6691284179688 209.1414337158203 L -249.7187957763672 229.8574371337891 L -250.2211303710938 230.7992553710938 L -249.7183532714844 231.7407989501953 L -240.3229217529297 249.3350830078125 L -254.5750579833984 270.593017578125 L -255.2046813964844 271.5321655273438 L -254.7246551513672 272.5558776855469 L -246.6142425537109 289.8518371582031 L -259.59521484375 308.326904296875 Z" stroke="none" />
        <path d="M -277.7513427734375 140.730224609375 L -363.146240234375 157.3708190917969 L -375.4208374023438 166.8896179199219 L -368.2911071777344 185.6651306152344 L -367.569091796875 187.5665893554688 L -368.6801147460938 189.2702026367188 L -381.8755493164062 209.5031890869141 L -372.4588317871094 233.8625640869141 L -372.0138244628906 235.0136566162109 L -372.2947692871094 236.2154083251953 L -375.9466552734375 251.8364410400391 L -362.8888244628906 273.5606689453125 L -361.9588317871094 275.10791015625 L -362.5038146972656 276.8288879394531 L -367.5243530273438 292.6839599609375 L -355.187744140625 306.326904296875 L -260.63427734375 306.326904296875 L -248.9174194335938 289.6509399414062 L -256.5354614257812 273.4049682617188 L -257.4955139160156 271.3576049804688 L -256.2362365722656 269.4793090820312 L -242.6525573730469 249.2183532714844 L -251.4825439453125 232.6829071044922 L -252.4881591796875 230.7997894287109 L -251.4834594726562 228.9162139892578 L -240.9929504394531 209.2485198974609 L -251.2953491210938 193.5955810546875 L -252.6111145019531 191.5965423583984 L -251.4716491699219 189.4920043945312 L -241.4241027832031 170.9341430664062 L -277.7513427734375 140.730224609375 M -276.6534729003906 136.4410705566406 L -236.3452758789062 169.9548950195312 L -247.9541320800781 191.3964691162109 L -236.3452758789062 209.0343322753906 L -247.9541320800781 230.7987060546875 L -237.9932861328125 249.4518127441406 L -252.9138488769531 271.7067565917969 L -244.3110656738281 290.052734375 L -258.5561218261719 310.326904296875 L -356.9635925292969 310.326904296875 L -372.0305786132812 293.6644897460938 L -366.3171691894531 275.6213684082031 L -380.2110595703125 252.5061645507812 L -376.1897583007812 235.3048400878906 L -386.3452758789062 209.0343322753906 L -372.0305786132812 187.0851440429688 L -380.2110595703125 165.5425720214844 L -364.8454284667969 153.6266784667969 L -276.6534729003906 136.4410705566406 Z" stroke="none" fill="#363636" />
      </g>
      <g id="グループ_3" data-name="グループ 3" transform="translate(32.79 29.817)">
        <line id="線_1" data-name="線 1" x2="65.86" transform="translate(26.212 37.926)" fill="none" stroke="#363636" stroke-width="4" />
        <line id="線_2" data-name="線 2" x2="65.86" transform="translate(26.212 76.926)" fill="none" stroke="#363636" stroke-width="4" />
        <line id="線_3" data-name="線 3" x2="65.86" transform="translate(26.212 117.926)" fill="none" stroke="#363636" stroke-width="4" />
        <line id="線_4" data-name="線 4" x2="71.71" fill="none" stroke="#363636" stroke-width="4" />
      </g>
      <g id="thunb-nail" transform="translate(74.838)">
        <g id="パス_2" data-name="パス 2" fill="#fdd7ad">
          <path d="M 32.39897918701172 46.59846115112305 C 28.23059844970703 46.59846115112305 24.19105911254883 45.98749160766602 20.39258003234863 44.78253173828125 C 16.7492790222168 43.62679290771484 13.48466873168945 41.97780227661133 10.68943881988525 39.88138198852539 C 7.936829090118408 37.81692123413086 5.783119201660156 35.42604064941406 4.288139343261719 32.77514266967773 C 2.769839286804199 30.08289337158203 1.999999165534973 27.23119163513184 1.999999165534973 24.29923248291016 C 1.999999165534973 21.36727333068848 2.769839286804199 18.51557159423828 4.288139343261719 15.82332229614258 C 5.783119201660156 13.17242240905762 7.936829090118408 10.78154277801514 10.68943881988525 8.717082023620605 C 13.48466873168945 6.620662689208984 16.7492790222168 4.971672534942627 20.39258003234863 3.815932512283325 C 24.19105911254883 2.61097240447998 28.23059844970703 2.000002384185791 32.39897918701172 2.000002384185791 C 36.56735992431641 2.000002384185791 40.60689926147461 2.61097240447998 44.40538024902344 3.815932512283325 C 48.04867935180664 4.971672534942627 51.31328964233398 6.620662689208984 54.1085205078125 8.717082023620605 C 56.86112976074219 10.78154277801514 59.01483917236328 13.17242240905762 60.50981903076172 15.82332229614258 C 62.02811813354492 18.51557159423828 62.79795837402344 21.36727333068848 62.79795837402344 24.29923248291016 C 62.79795837402344 27.23119163513184 62.02811813354492 30.08289337158203 60.50981903076172 32.77514266967773 C 59.01483917236328 35.42604064941406 56.86112976074219 37.81692123413086 54.1085205078125 39.88138198852539 C 51.31328964233398 41.97780227661133 48.04867935180664 43.62679290771484 44.40538024902344 44.78253173828125 C 40.60689926147461 45.98749160766602 36.56735992431641 46.59846115112305 32.39897918701172 46.59846115112305 Z" stroke="none" />
          <path d="M 32.39897918701172 3.999996185302734 C 28.43605041503906 3.999996185302734 24.59997940063477 4.5794677734375 20.99733352661133 5.722316741943359 C 17.56877899169922 6.809925079345703 14.50443649291992 8.355831146240234 11.88945007324219 10.31707763671875 C 6.801860809326172 14.13277435302734 4.000003814697266 19.09839630126953 4.000003814697266 24.29923248291016 C 4.000003814697266 29.50006866455078 6.801860809326172 34.46569061279297 11.88945007324219 38.28138732910156 C 14.50443649291992 40.24263381958008 17.56877899169922 41.78853988647461 20.99733352661133 42.87615203857422 C 24.59997940063477 44.01899719238281 28.43605041503906 44.59846878051758 32.39897918701172 44.59846878051758 C 36.36190795898438 44.59846878051758 40.19797897338867 44.01899719238281 43.80062866210938 42.87615203857422 C 47.22917938232422 41.78853988647461 50.29351806640625 40.24263381958008 52.90850830078125 38.28138732910156 C 57.99609756469727 34.46569061279297 60.79795455932617 29.50006866455078 60.79795455932617 24.29923248291016 C 60.79795455932617 19.09839630126953 57.99609756469727 14.13277435302734 52.90850830078125 10.31707763671875 C 50.29351806640625 8.355831146240234 47.22917938232422 6.809925079345703 43.80062866210938 5.722316741943359 C 40.19797897338867 4.5794677734375 36.36190795898438 3.999996185302734 32.39897918701172 3.999996185302734 M 32.39897918701172 -3.814697265625e-06 C 50.29243850708008 -3.814697265625e-06 64.79795837402344 10.8791389465332 64.79795837402344 24.29923248291016 C 64.79795837402344 37.71932601928711 50.29243850708008 48.59846878051758 32.39897918701172 48.59846878051758 C 14.50551986694336 48.59846878051758 0 37.71932601928711 0 24.29923248291016 C 0 10.8791389465332 14.50551986694336 -3.814697265625e-06 32.39897918701172 -3.814697265625e-06 Z" stroke="none" fill="#363636" />
        </g>
        <g id="パス_3" data-name="パス 3" transform="translate(11.367 1.35)" fill="#fdc6ad">
          <path d="M 20.86765289306641 19.17289924621582 C 15.44138336181641 19.17289924621582 10.35560321807861 18.15911865234375 6.547183036804199 16.31829833984375 C 4.752362728118896 15.45076847076416 3.35450291633606 14.4534387588501 2.392442941665649 13.35401821136475 C 1.468482851982117 12.29814910888672 1.000002861022949 11.19877910614014 1.000002861022949 10.08644866943359 C 1.000002861022949 8.974118232727051 1.468482851982117 7.874748706817627 2.392442941665649 6.818878650665283 C 3.35450291633606 5.71945858001709 4.752362728118896 4.722128868103027 6.547183036804199 3.854598760604858 C 10.35560321807861 2.013778686523438 15.44138336181641 0.9999986886978149 20.86765289306641 0.9999986886978149 C 26.29393196105957 0.9999986886978149 31.37970352172852 2.013778686523438 35.18813323974609 3.854598760604858 C 36.98294448852539 4.722128868103027 38.38080215454102 5.71945858001709 39.34286117553711 6.818878650665283 C 40.26682281494141 7.874748706817627 40.73530197143555 8.974118232727051 40.73530197143555 10.08644866943359 C 40.73530197143555 11.19877910614014 40.26682281494141 12.29814910888672 39.34286117553711 13.35401821136475 C 38.38080215454102 14.4534387588501 36.98294448852539 15.45076847076416 35.18813323974609 16.31829833984375 C 31.37970352172852 18.15911865234375 26.29393196105957 19.17289924621582 20.86765289306641 19.17289924621582 Z" stroke="none" />
          <path d="M 20.86765289306641 1.999998092651367 C 15.58905220031738 1.999998092651367 10.65782356262207 2.978387832641602 6.982364654541016 4.754939079284668 C 3.816001892089844 6.285408973693848 2.000003814697266 8.228668212890625 2.000003814697266 10.08644866943359 C 2.000003814697266 11.94422912597656 3.816001892089844 13.88748931884766 6.982364654541016 15.41795921325684 C 10.65782356262207 17.19450759887695 15.58905220031738 18.17289924621582 20.86765289306641 18.17289924621582 C 26.1462516784668 18.17289924621582 31.07748413085938 17.19450759887695 34.75294494628906 15.41795921325684 C 37.91930389404297 13.88748931884766 39.73530197143555 11.94422912597656 39.73530197143555 10.08644866943359 C 39.73530197143555 8.228668212890625 37.91930389404297 6.285408973693848 34.75294494628906 4.754939079284668 C 31.07748413085938 2.978387832641602 26.1462516784668 1.999998092651367 20.86765289306641 1.999998092651367 M 20.86765289306641 -1.9073486328125e-06 C 32.39254379272461 -1.9073486328125e-06 41.73530197143555 4.51585865020752 41.73530197143555 10.08644866943359 C 41.73530197143555 15.65703868865967 32.39254379272461 20.17289924621582 20.86765289306641 20.17289924621582 C 9.342761993408203 20.17289924621582 3.814697265625e-06 15.65703868865967 3.814697265625e-06 10.08644866943359 C 3.814697265625e-06 4.51585865020752 9.342761993408203 -1.9073486328125e-06 20.86765289306641 -1.9073486328125e-06 Z" stroke="none" fill="#363636" />
        </g>
      </g>
    </g>
  </g>
</svg>
