<!-- <svg xmlns="http://www.w3.org/2000/svg" width="146.401" height="245.301" viewBox="0 0 146.401 245.301">
  <g id="グループ_22" data-name="グループ 22" transform="translate(-70.649 270.741)">
    <path id="node10" d="M140.2-269.3c-7.9,3.9-8.8,15.4-2.9,38.8,4.3,16.9,6,29,5.1,35.2l-.7,4.5,3.4-.8c1.9-.4,8.8-1.9,15.4-3.3l12-2.6.3-3.5c.1-1.9,1.2-8.4,2.3-14.4,4.1-21,.9-34-11.3-45.8C154.3-270.4,147.2-272.8,140.2-269.3Z" fill="#fdd7ad" stroke="#707070" stroke-width="0.1" />
    <path id="node11" d="M177-193.9a289.82,289.82,0,0,0-35.5,7.6c-25.9,7.3-29.9,11.3-23.9,23.6,3.2,6.5,2.9,8.5-2.2,15-4.2,5.4-4.1,6.7,1.9,13.4,6.4,7.1,7.2,11.5,3.7,20.3-3.4,8.6-2.9,11,4,18.6l6,6.6v6.4c0,6.3.1,6.4,3.8,8.8,7.2,4.8,11.7,5.8,26.7,6,22,.2,32.5-3.5,41.2-14.5,3.4-4.3,4.1-7.6,2.3-11-1-1.7-2.3-1.9-13.8-2-7,0-17.6-.6-23.7-1.2-9.5-1-11-1.5-11.3-3.1-.4-1.8.2-1.9,13.3-1.3a144.572,144.572,0,0,0,21.6-.4c5.8-.8,8.8-.8,11.1,0,4.9,1.7,6-.4,5.6-10.2l-.3-7.8-5.3-5.1-5.4-5.1-21.1.6c-11.7.4-23.3,1-25.9,1.3-4.4.6-4.8.5-4.8-1.5,0-1.1.3-2.1.8-2.1.4,0,7-.7,14.7-1.5,15.9-1.7,31.1-1.9,37-.5,2.9.6,5.2,2.2,8.7,6l4.6,5.2,1.7-2.6c2.3-3.5,4.5-11.2,4.5-15.8,0-5.5-1.8-8.5-10.1-16.2l-7.2-6.8-14.1.4c-10.9.4-16.4,1.1-24.5,3.2-9.2,2.4-10.9,2.6-15.7,1.6-4.1-.9-5.4-1.6-5.4-3,0-1.6.9-1.8,7.8-1.7a79.1,79.1,0,0,0,17.2-2c11.2-2.5,26.8-3.8,33.5-2.7,3.7.5,5.9,1.6,9,4.5a26.09,26.09,0,0,0,4.7,3.9c1.1,0-1.2-10.1-3.2-14-3-5.9-11.6-17.5-14.7-20C191.5-195.2,186.8-195.4,177-193.9Z" fill="#fdd7ad" stroke="#707070" stroke-width="0.1" />
    <path id="node12" d="M114.1-111.2c-1,1.9-14.9,13-18.8,15.1A76.173,76.173,0,0,1,86.6-93c-10.8,3.4-16,11.8-15.9,25.5.2,13.2,6.1,25.6,15.3,32,5.1,3.5,15.7,8.1,21.8,9.4,9.5,2,12.8,0,19.4-11.4,4.9-8.4,9.3-14.2,11.9-15.5,1-.6,6.9-1.7,13-2.4,10.1-1.3,11.4-1.7,14.1-4.3l3-3-10.8-.7c-11.8-.8-20.6-3.2-26.6-7.4-4.3-3-5.3-5.5-4.5-11.3.5-3.8.2-4.4-5.4-10.6-6.5-7.2-7.4-9.4-6.5-15.9C116-113.3,115.6-114.1,114.1-111.2Z" fill="#fdd7ad" stroke="#707070" stroke-width="0.1" />
  </g>
</svg> -->
<svg xmlns="http://www.w3.org/2000/svg" width="150" height="250" viewBox="0 0 150 250">
  <g id="グループ_6" data-name="グループ 6" transform="translate(-1181 -107)">
    <rect id="長方形_15" data-name="長方形 15" width="150" height="250" transform="translate(1181 107)" fill="none" />
    <g id="opp-right-up" transform="translate(1181 111)">
      <g id="opp-left-body-up" transform="translate(386.345 -64.44)" fill="#fdd7ad">
        <path d="M -259.5951843261719 308.3269348144531 L -356.07568359375 308.3269348144531 L -369.7774658203125 293.1742553710938 L -364.4104614257812 276.2251586914062 L -364.1380004882812 275.3646545410156 L -364.6029968261719 274.591064453125 L -378.0788269042969 252.1713256835938 L -374.2422485351562 235.7601165771484 L -374.1017761230469 235.1592559814453 L -374.3242797851562 234.5837249755859 L -384.1104125976562 209.2687530517578 L -370.3553466796875 188.1776885986328 L -369.7998046875 187.3258819580078 L -370.1608276367188 186.3751525878906 L -377.81591796875 166.2161254882812 L -363.9569396972656 155.4685821533203 L -310.276611328125 142.37548828125 L -308.7505493164062 142.0032501220703 L -308.7505493164062 140.4324493408203 L -308.7505493164062 101.9933242797852 C -308.7505493164062 90.69012451171875 -306.4502563476562 81.92495727539062 -301.91357421875 75.94129180908203 C -299.6067504882812 72.89865875244141 -296.6816101074219 70.55789184570312 -293.2194519042969 68.98398590087891 C -289.5732116699219 67.32645416259766 -285.2336730957031 66.47088623046875 -280.3213806152344 66.44105529785156 C -280.2346801757812 66.44052124023438 -280.1474609375 66.44025421142578 -280.0613403320312 66.44025421142578 C -275.2782897949219 66.44025421142578 -271.2213134765625 67.26995849609375 -268.0031433105469 68.90628814697266 C -264.9839477539062 70.44149017333984 -262.6207275390625 72.68125152587891 -260.7785339355469 75.75355529785156 C -257.3996887207031 81.38868713378906 -255.8259429931641 89.72655487060547 -255.8259429931641 101.9933242797852 L -255.8259429931641 153.6266479492188 L -255.8259429931641 154.4952850341797 L -255.1911468505859 155.0882263183594 L -238.8397979736328 170.3615875244141 L -249.7129058837891 190.4442291259766 L -250.2826385498047 191.4964904785156 L -249.6247406005859 192.4960174560547 L -238.6691131591797 209.1413879394531 L -249.7188110351562 229.8574523925781 L -250.2211456298828 230.7992553710938 L -249.7183380126953 231.7408294677734 L -240.3229064941406 249.3350830078125 L -254.5750427246094 270.593017578125 L -255.2046813964844 271.5321655273438 L -254.7246398925781 272.5558776855469 L -246.6142425537109 289.8518676757812 L -259.5951843261719 308.3269348144531 Z" stroke="none" />
        <path d="M -280.0613098144531 68.44024658203125 C -280.1436767578125 68.44024658203125 -280.2269897460938 68.44049072265625 -280.3092041015625 68.44097900390625 C -284.938232421875 68.46908569335938 -289.00341796875 69.26437377929688 -292.3917541503906 70.80471801757812 C -295.5483703613281 72.23965454101562 -298.2158203125 74.37442016601562 -300.3198852539062 77.14959716796875 C -302.4268188476562 79.92855834960938 -304.0398254394531 83.42877197265625 -305.114013671875 87.55294799804688 C -306.199951171875 91.72210693359375 -306.7505493164062 96.58053588867188 -306.7505493164062 101.9933166503906 L -306.7505493164062 140.4324493408203 L -306.7505493164062 143.5740966796875 L -309.8027038574219 144.3185272216797 L -363.0685424804688 157.3105316162109 L -375.4208374023438 166.8896484375 L -368.2911376953125 185.6651306152344 L -367.569091796875 187.5665588378906 L -368.68017578125 189.2702026367188 L -381.8755493164062 209.503173828125 L -372.4588623046875 233.8625640869141 L -372.0138549804688 235.013671875 L -372.2947998046875 236.2154235839844 L -375.9466552734375 251.83642578125 L -362.8888244628906 273.5606994628906 L -361.9588012695312 275.10791015625 L -362.5037841796875 276.8289184570312 L -367.5243530273438 292.6840209960938 L -355.1877746582031 306.326904296875 L -260.6343078613281 306.326904296875 L -248.9174194335938 289.6509704589844 L -256.5354614257812 273.4049987792969 L -257.4955139160156 271.3575439453125 L -256.2362365722656 269.4792785644531 L -242.6525268554688 249.2183685302734 L -251.4825744628906 232.6829223632812 L -252.4881286621094 230.7997741699219 L -251.4834594726562 228.9161987304688 L -240.9929504394531 209.24853515625 L -251.2953796386719 193.5955657958984 L -252.611083984375 191.5965270996094 L -251.4716796875 189.4919891357422 L -241.3343200683594 170.768310546875 L -256.556396484375 156.5498046875 L -257.8259582519531 155.3639526367188 L -257.8259582519531 153.6266632080078 L -257.8259582519531 101.9933166503906 C -257.8259582519531 96.16848754882812 -258.1798400878906 91.35415649414062 -258.9078979492188 87.2752685546875 C -259.6795654296875 82.95169067382812 -260.8525390625 79.51934814453125 -262.4938354492188 76.78207397460938 C -264.1369323730469 74.04177856445312 -266.2355651855469 72.04873657226562 -268.9096374511719 70.68905639648438 C -271.8442993164062 69.19683837890625 -275.5962829589844 68.44024658203125 -280.0613098144531 68.44024658203125 M -280.0613403320312 64.44021606445312 C -259.0469970703125 64.44021606445312 -253.8259582519531 79.34872436523438 -253.8259582519531 101.9933166503906 C -253.8259582519531 124.7350616455078 -253.8259582519531 153.6266632080078 -253.8259582519531 153.6266632080078 L -236.3452758789062 169.9548797607422 L -247.9541320800781 191.3964538574219 L -236.3452758789062 209.0343475341797 L -247.9541320800781 230.7987060546875 L -237.9932861328125 249.4518127441406 L -252.9138488769531 271.7067260742188 L -244.3110656738281 290.052734375 L -258.5561218261719 310.326904296875 L -356.9635925292969 310.326904296875 L -372.0305786132812 293.6644897460938 L -366.3171691894531 275.6213989257812 L -380.2110595703125 252.5061645507812 L -376.1897583007812 235.3048400878906 L -386.3452758789062 209.0343475341797 L -372.0305786132812 187.0851287841797 L -380.2110595703125 165.5426025390625 L -364.8454284667969 153.6266632080078 L -310.7505493164062 140.4324493408203 C -310.7505493164062 140.4324493408203 -310.7505493164062 124.7469482421875 -310.7505493164062 101.9933166503906 C -310.7505493164062 79.23965454101562 -301.5742797851562 64.570068359375 -280.33349609375 64.44107055664062 C -280.2427368164062 64.44052124023438 -280.1514892578125 64.44021606445312 -280.0613403320312 64.44021606445312 Z" stroke="none" fill="#363636" />
      </g>
      <g id="opp-lines" transform="translate(31.5 88.818)">
        <line id="line-4" x2="65.86" transform="translate(27.502 117.926)" fill="none" stroke="#363636" stroke-width="4" />
        <line id="line-3" x2="65.86" transform="translate(27.502 76.926)" fill="none" stroke="#363636" stroke-width="4" />
        <line id="line-2" x2="65.86" transform="translate(27.14 37.926)" fill="none" stroke="#363636" stroke-width="4" />
        <path id="line-1" d="M4.3,0H93" transform="translate(-4.298)" fill="none" stroke="#363636" stroke-width="4" />
      </g>
    </g>
  </g>
</svg>
