<svg xmlns="http://www.w3.org/2000/svg" width="150" height="250.159" viewBox="0 0 150 250.159">
  <g id="グループ_20" data-name="グループ 20" transform="translate(-179 -847)">
    <rect id="長方形_22" data-name="長方形 22" width="150" height="250" transform="translate(179 847)" fill="none" />
    <g id="user-left-down-lost" transform="translate(179 923)">
      <g id="user-right-body-down" transform="translate(307.049 -498.106)" fill="#ddd">
        <path d="M -180.4186553955078 670.2652587890625 L -276.2633972167969 670.2547607421875 L -304.9397888183594 571.0886840820312 L -284.1539611816406 517.5033569335938 L -198.590576171875 505.7393188476562 L -159.113525390625 532.8565673828125 L -159.113525390625 638.9614868164062 L -180.4186553955078 670.2652587890625 Z" stroke="none" />
        <path d="M -181.4766387939453 668.26513671875 L -161.113525390625 638.345458984375 L -161.113525390625 533.9091186523438 L -199.0849609375 507.8261108398438 L -282.7151489257812 519.3243408203125 L -302.8308410644531 571.1820678710938 L -274.7597351074219 668.2549438476562 L -181.4766387939453 668.26513671875 M -179.3606414794922 672.265380859375 L -277.7670288085938 672.2545776367188 L -307.0487670898438 570.9952392578125 L -285.5928039550781 515.682373046875 L -198.0961761474609 503.6525268554688 L -157.113525390625 531.803955078125 L -157.113525390625 639.5775146484375 L -179.3606414794922 672.265380859375 Z" stroke="none" fill="#ccc" />
      </g>
      <g id="user-thumb-nail" transform="translate(79.773)">
        <g id="thumb" fill="#ddd">
          <path d="M 32.39897537231445 46.59846115112305 C 28.23059463500977 46.59846115112305 24.19105529785156 45.98749160766602 20.39258575439453 44.78253173828125 C 16.7492847442627 43.62679290771484 13.48467540740967 41.97780227661133 10.68944549560547 39.88138198852539 C 7.936835289001465 37.81692123413086 5.783125400543213 35.42604064941406 4.288145542144775 32.77514266967773 C 2.769845485687256 30.0829029083252 2.000005483627319 27.23119163513184 2.000005483627319 24.29923248291016 C 2.000005483627319 21.36727333068848 2.769845485687256 18.51556205749512 4.288145542144775 15.82332229614258 C 5.783125400543213 13.17242240905762 7.936835289001465 10.78154277801514 10.68944549560547 8.717082023620605 C 13.48467540740967 6.620662689208984 16.7492847442627 4.971672534942627 20.39258575439453 3.815932512283325 C 24.19105529785156 2.61097240447998 28.23059463500977 2.000002384185791 32.39897537231445 2.000002384185791 C 36.56735610961914 2.000002384185791 40.60689544677734 2.61097240447998 44.40537643432617 3.815932512283325 C 48.04867553710938 4.971672534942627 51.31328582763672 6.620662689208984 54.10851669311523 8.717082023620605 C 56.86112594604492 10.78154277801514 59.01483535766602 13.17242240905762 60.50981521606445 15.82332229614258 C 62.02811431884766 18.51557159423828 62.79795455932617 21.36727333068848 62.79795455932617 24.29923248291016 C 62.79795455932617 27.23119163513184 62.02811431884766 30.08289337158203 60.50981521606445 32.77514266967773 C 59.01483535766602 35.42604064941406 56.86112594604492 37.81692123413086 54.10851669311523 39.88138198852539 C 51.31328582763672 41.97780227661133 48.04867553710938 43.62679290771484 44.40537643432617 44.78253173828125 C 40.60689544677734 45.98749160766602 36.56735610961914 46.59846115112305 32.39897537231445 46.59846115112305 Z" stroke="none" />
          <path d="M 32.39897537231445 3.999996185302734 C 28.4360466003418 3.999996185302734 24.5999755859375 4.5794677734375 20.99732971191406 5.722316741943359 C 17.56877517700195 6.809925079345703 14.50443267822266 8.355831146240234 11.88944625854492 10.31707763671875 C 6.801856994628906 14.13277435302734 4 19.09839630126953 4 24.29923248291016 C 4 29.50006866455078 6.801856994628906 34.46569061279297 11.88944625854492 38.28138732910156 C 14.50443267822266 40.24263381958008 17.56877517700195 41.78853988647461 20.99732971191406 42.87615203857422 C 24.5999755859375 44.01899719238281 28.4360466003418 44.59846878051758 32.39897537231445 44.59846878051758 C 36.36190414428711 44.59846878051758 40.19797515869141 44.01899719238281 43.80062103271484 42.87615203857422 C 47.22917556762695 41.78853988647461 50.29351806640625 40.24263381958008 52.90850448608398 38.28138732910156 C 57.99609375 34.46569061279297 60.79795074462891 29.50006866455078 60.79795074462891 24.29923248291016 C 60.79795074462891 19.09839630126953 57.99609375 14.13277435302734 52.90850448608398 10.31707763671875 C 50.29351806640625 8.355831146240234 47.22917556762695 6.809925079345703 43.80062103271484 5.722316741943359 C 40.19797515869141 4.5794677734375 36.36190414428711 3.999996185302734 32.39897537231445 3.999996185302734 M 32.39897537231445 -3.814697265625e-06 C 50.29243469238281 -3.814697265625e-06 64.79795074462891 10.8791389465332 64.79795074462891 24.29923248291016 C 64.79795074462891 37.71932601928711 50.29243469238281 48.59846878051758 32.39897537231445 48.59846878051758 C 14.50551605224609 48.59846878051758 0 37.71932601928711 0 24.29923248291016 C 0 10.8791389465332 14.50551605224609 -3.814697265625e-06 32.39897537231445 -3.814697265625e-06 Z" stroke="none" fill="#ccc" />
        </g>
        <g id="nail" transform="translate(11.423 1.35)" fill="#ddd">
          <path d="M 33.36784744262695 16.21113014221191 C 29.19817733764648 16.21113014221191 23.74614715576172 16.1990795135498 18.47362899780273 16.18742942810059 C 13.56001853942871 16.17656898498535 8.91890811920166 16.16631889343262 5.608438014984131 16.16631889343262 C 4.089227676391602 16.16631889343262 2.953483819961548 16.16850852966309 2.173902273178101 16.17297744750977 C 1.807418465614319 14.527907371521 0.9999980926513672 10.66417121887207 0.9999980926513672 8.556829452514648 C 0.9999980926513672 6.730399608612061 2.998658180236816 4.862209320068359 6.483488082885742 3.431289434432983 C 10.30178833007812 1.863449454307556 15.40007781982422 0.9999995231628418 20.83917808532715 0.9999995231628418 C 26.27827835083008 0.9999995231628418 31.37656784057617 1.863449454307556 35.19486618041992 3.431289434432983 C 38.62928771972656 4.841510772705078 40.6202278137207 6.676578998565674 40.67710876464844 8.477681159973145 L 39.33475875854492 16.19354438781738 C 38.21648025512695 16.20534896850586 36.24586486816406 16.21112251281738 33.36784744262695 16.21113014221191 Z" stroke="none" />
          <path d="M 20.83917808532715 1.999999046325684 C 15.52730751037598 1.999999046325684 10.56392860412598 2.83682918548584 6.863327026367188 4.356349945068359 C 3.863517761230469 5.588109970092773 1.999996185302734 7.197639465332031 1.999996185302734 8.556829452514648 C 1.999996185302734 10.19154930114746 2.551239013671875 13.16147518157959 2.977607727050781 15.16955375671387 C 3.674877166748047 15.16738700866699 4.548797607421875 15.16631984710693 5.608436584472656 15.16631984710693 C 8.920089721679688 15.16631984710693 13.56186866760254 15.17656898498535 18.47618865966797 15.18742942810059 C 23.74803733825684 15.1990795135498 29.19937896728516 15.21111965179443 33.36784744262695 15.21111965179443 C 35.63067245483398 15.21111965179443 37.32998275756836 15.20757293701172 38.49252700805664 15.20036315917969 L 39.67214965820312 8.419851303100586 C 39.55265808105469 7.090559005737305 37.71468734741211 5.546985626220703 34.81502914428711 4.356349945068359 C 31.11442947387695 2.83682918548584 26.15104675292969 1.999999046325684 20.83917808532715 1.999999046325684 M 20.83917808532715 0 C 32.34833908081055 0 41.67835998535156 3.831029891967773 41.67835998535156 8.556829452514648 L 40.17817687988281 17.17990875244141 C 39.33086013793945 17.20301628112793 36.78423690795898 17.21112442016602 33.36784362792969 17.21112442016602 C 25.33596229553223 17.21112442016602 12.4925708770752 17.16631507873535 5.608432769775391 17.16631507873535 C 3.604137420654297 17.16631507873535 2.106983184814453 17.17010688781738 1.378429412841797 17.17990875244141 C 1.378429412841797 17.17990875244141 -3.814697265625e-06 11.42066955566406 -3.814697265625e-06 8.556829452514648 C -3.814697265625e-06 3.831029891967773 9.33001708984375 0 20.83917808532715 0 Z" stroke="none" fill="#ccc" />
        </g>
      </g>
    </g>
  </g>
</svg>
