<svg xmlns="http://www.w3.org/2000/svg" width="150" height="250.159" viewBox="0 0 150 250.159">
  <g id="グループ_14" data-name="グループ 14" transform="translate(-1181 -847)">
    <rect id="長方形_18" data-name="長方形 18" width="150" height="250" transform="translate(1181 847)" fill="none" />
    <g id="user-left-up" transform="translate(1181 851)">
      <g id="user-right-body-up" transform="translate(307.049 -426.106)" fill="#fdd7ad">
        <path d="M -180.4186553955078 670.2652587890625 L -276.2633972167969 670.2547607421875 L -304.9398193359375 571.0886840820312 L -284.1249084472656 517.4284057617188 L -226.9591827392578 505.9944763183594 L -225.3674468994141 505.6761169433594 L -225.3515472412109 504.0529174804688 C -225.3491516113281 503.81005859375 -225.1135101318359 479.5712890625 -225.1135101318359 462.6743774414062 C -225.1135101318359 458.3761291503906 -224.5661773681641 454.2075500488281 -223.4867401123047 450.2844543457031 C -222.3215789794922 446.0498046875 -220.5829467773438 442.3038635253906 -218.3191528320312 439.1507263183594 C -215.8537445068359 435.716796875 -212.7917175292969 433.0400390625 -209.2180786132812 431.19482421875 C -205.2488861083984 429.1453552246094 -200.6087799072266 428.106201171875 -195.4266815185547 428.106201171875 C -190.2022857666016 428.106201171875 -185.4839477539062 429.11328125 -181.4028167724609 431.0994873046875 C -177.6870727539062 432.9078674316406 -174.484375 435.5311279296875 -171.8837127685547 438.8964233398438 C -169.4589538574219 442.0341186523438 -167.5895843505859 445.7624206542969 -166.3276062011719 449.977783203125 C -165.1302185058594 453.9774475097656 -164.5230865478516 458.2492370605469 -164.5230865478516 462.6743774414062 L -164.5230865478516 526.2841186523438 L -164.5230865478516 527.1007690429688 L -163.9514770507812 527.6840209960938 L -159.1135101318359 532.6205444335938 L -159.1135101318359 638.9614868164062 L -180.4186553955078 670.2652587890625 Z" stroke="none" />
        <path d="M -181.4766235351562 668.26513671875 L -161.1135101318359 638.345458984375 L -161.1135101318359 533.437255859375 L -165.3798980712891 529.0838623046875 L -166.5230712890625 527.9173583984375 L -166.5230712890625 526.2841186523438 L -166.5230712890625 462.6744079589844 C -166.5230712890625 458.443603515625 -167.1019287109375 454.3648376464844 -168.2435760498047 450.5513916015625 C -169.4349365234375 446.5719909667969 -171.1920776367188 443.0621948242188 -173.4662170410156 440.119384765625 C -175.8768920898438 436.9999389648438 -178.8416137695312 434.5702514648438 -182.2779998779297 432.8978576660156 C -186.0842132568359 431.0454711914062 -190.5080413818359 430.1062316894531 -195.4266815185547 430.1062316894531 C -204.6744995117188 430.1062316894531 -211.8300323486328 433.5416870117188 -216.6945037841797 440.317138671875 C -218.8197937011719 443.2773742675781 -220.4562530517578 446.8093566894531 -221.5584259033203 450.8150634765625 C -222.5757904052734 454.5125122070312 -223.1135406494141 458.6134033203125 -223.1135406494141 462.6744079589844 C -223.1135406494141 479.5809936523438 -223.3492584228516 503.82958984375 -223.3516082763672 504.072509765625 L -223.3834381103516 507.3189086914062 L -226.5669250488281 507.9556579589844 L -282.656982421875 519.1743774414062 L -302.8308410644531 571.1820678710938 L -274.7597351074219 668.2548828125 L -181.4766235351562 668.26513671875 M -179.3606414794922 672.265380859375 L -277.7670288085938 672.2545776367188 L -307.0487670898438 570.9952392578125 L -285.5928039550781 515.682373046875 L -227.3514251708984 504.0333251953125 C -227.3514251708984 504.0333251953125 -227.1135406494141 479.7569580078125 -227.1135406494141 462.6744079589844 C -227.1135406494141 445.591796875 -218.5565338134766 426.1062316894531 -195.4266815185547 426.1062316894531 C -172.2968292236328 426.1062316894531 -162.5230712890625 444.7628479003906 -162.5230712890625 462.6744079589844 C -162.5230712890625 480.5859069824219 -162.5230712890625 526.2841186523438 -162.5230712890625 526.2841186523438 L -157.1135101318359 531.803955078125 L -157.1135101318359 639.5775146484375 L -179.3606414794922 672.265380859375 Z" stroke="none" fill="#363636" />
      </g>
      <g id="user-nail-up" transform="translate(91.47 4.934)" fill="#fdc6ad">
        <path d="M 7.253448009490967 27.10426330566406 C 4.260676383972168 27.10426330566406 2.193651437759399 27.09814071655273 0.9999980926513672 27.08564567565918 L 0.9999980926513672 7.699893474578857 C 0.9999980926513672 5.429023742675781 3.016578197479248 2.903673648834229 6.39434814453125 0.9445937275886536 C 10.22294807434082 -1.275976300239563 15.20300769805908 -2.498896360397339 20.41713714599609 -2.498896360397339 C 25.6063289642334 -2.498896360397339 30.87886810302734 -1.239506244659424 34.88282775878906 0.9563537240028381 C 38.51180648803711 2.946573734283447 40.67835998535156 5.467523574829102 40.67835998535156 7.699893474578857 L 40.67835998535156 27.05967903137207 C 39.87397766113281 27.0553092956543 38.73169708251953 27.05316352844238 37.22857666015625 27.05316352844238 C 33.69921875 27.05316352844238 28.69500732421875 27.0648136138916 23.39696884155273 27.0771541595459 C 17.67466735839844 27.09048461914062 11.75754833221436 27.10426330566406 7.253448009490967 27.10426330566406 Z" stroke="none" />
        <path d="M 20.41713714599609 -1.498907089233398 C 17.81397819519043 -1.498907089233398 15.27410888671875 -1.186235427856445 12.86808776855469 -0.5695667266845703 C 10.64481735229492 0.0002536773681640625 8.635536193847656 0.8007240295410156 6.89605712890625 1.809614181518555 C 3.876056671142578 3.561203002929688 1.999996185302734 5.81822395324707 1.999996185302734 7.699893951416016 L 1.999996185302734 26.09331321716309 C 3.235080718994141 26.10059547424316 4.989990234375 26.10426330566406 7.253158569335938 26.10426330566406 C 11.7560977935791 26.10426330566406 17.67262840270996 26.09048461914062 23.39434814453125 26.07716369628906 C 28.69296836853027 26.06482315063477 33.69773864746094 26.05316352844238 37.22825622558594 26.05316352844238 C 38.18999481201172 26.05316352844238 39.00474166870117 26.05404472351074 39.67835998535156 26.05582809448242 L 39.67835998535156 7.699893951416016 C 39.67835998535156 5.866054534912109 37.65656661987305 3.618043899536133 34.40196990966797 1.833152770996094 C 30.54077911376953 -0.2844161987304688 25.44350814819336 -1.498907089233398 20.41713714599609 -1.498907089233398 M 20.41713714599609 -3.498907089233398 C 31.92629814147949 -3.498907089233398 41.67835998535156 2.310712814331055 41.67835998535156 7.699893951416016 C 41.67835998535156 10.96573352813721 41.67835998535156 28.06866455078125 41.67835998535156 28.06866455078125 C 40.95006561279297 28.0574893951416 39.36892700195312 28.05316162109375 37.22826385498047 28.05316352844238 C 29.87233352661133 28.05316352844238 15.91113471984863 28.10426139831543 7.253162384033203 28.10426139831543 C 3.570846557617188 28.10426139831543 0.8473167419433594 28.09501457214355 -3.814697265625e-06 28.06866455078125 L -3.814697265625e-06 7.699893951416016 C -3.814697265625e-06 2.310712814331055 8.907978057861328 -3.498907089233398 20.41713714599609 -3.498907089233398 Z" stroke="none" fill="#363636" />
      </g>
    </g>
  </g>
</svg>
